<?xml version="1.0" encoding="UTF-8"?><svg id="b" xmlns="http://www.w3.org/2000/svg" viewBox="0 0 284 158.0423"><defs><style>.two{opacity:.5;}.three{opacity:.1;}</style></defs><g id="c"><g class="three"><path d="M110.5423,0c31.8209,1.5635,55.0062,14.036,57.4978,48.5022,1.2635,17.4779,1.2633,45.6023,0,63.0803-1.7031,23.5615-20.7686,46.4598-45.5402,46.4598H58V.2108s35.9105-.2108,52.5423-.2108M117.5,23.0423h-34.5v113h31.5c1.6026,0,9.2089-2.0761,11.1855-2.8145,7.2453-2.7069,12.9109-8.5822,15.0221-15.9779,3.803-13.3227,3.9145-63.8922-.6721-76.7431-3.229-9.0471-13.002-16.2976-22.5355-17.4645"/><polygon points="0 .2108 25.7172 .2108 25 158.0423 0 158.0423 0 .2108"/><polygon points="284 .2108 284 23.2108 222 23.2108 222 67.2108 278.2465 67.2108 278.2465 89.2108 222 89.2108 222 136.2108 284 136.2108 284 158.0423 197 158.0423 197 .2108 284 .2108"/></g><g class="two"><path d="M110.5423,0c31.8209,1.5635,55.0062,14.036,57.4978,48.5022,1.2635,17.4779,1.2633,45.6023,0,63.0803-1.7031,23.5615-20.7686,46.4598-45.5402,46.4598H58V.2108s35.9105-.2108,52.5423-.2108M117.5,23.0423h-34.5v113h31.5c1.6026,0,9.2089-2.0761,11.1855-2.8145,7.2453-2.7069,12.9109-8.5822,15.0221-15.9779,3.803-13.3227,3.9145-63.8922-.6721-76.7431-3.229-9.0471-13.002-16.2976-22.5355-17.4645"/><polygon points="0 .2108 25.7172 .2108 25 158.0423 0 158.0423 0 .2108"/><polygon points="284 .2108 284 23.2108 222 23.2108 222 67.2108 278.2465 67.2108 278.2465 89.2108 222 89.2108 222 136.2108 284 136.2108 284 158.0423 197 158.0423 197 .2108 284 .2108"/></g><path d="M110.5423,0c31.8209,1.5635,55.0062,14.036,57.4978,48.5022,1.2635,17.4779,1.2633,45.6023,0,63.0803-1.7031,23.5615-20.7686,46.4598-45.5402,46.4598H58V.2108s35.9105-.2108,52.5423-.2108M117.5,23.0423h-34.5v113h31.5c1.6026,0,9.2089-2.0761,11.1855-2.8145,7.2453-2.7069,12.9109-8.5822,15.0221-15.9779,3.803-13.3227,3.9145-63.8922-.6721-76.7431-3.229-9.0471-13.002-16.2976-22.5355-17.4645"/><polygon points="0 .2108 25.7172 .2108 25 158.0423 0 158.0423 0 .2108"/><polygon points="284 .2108 284 23.2108 222 23.2108 222 67.2108 278.2465 67.2108 278.2465 89.2108 222 89.2108 222 136.2108 284 136.2108 284 158.0423 197 158.0423 197 .2108 284 .2108"/></g></svg>