<?xml version="1.0" encoding="UTF-8"?><svg id="b" xmlns="http://www.w3.org/2000/svg" viewBox="0 0 304 178.0423"><defs><style>.two{opacity:.5;}.three{opacity:.1;}</style></defs><g id="c"><g class="three"><path d="M130.5423,20c31.8209,1.5635,55.0062,14.036,57.4978,48.5022,1.2635,17.4779,1.2633,45.6023,0,63.0803-1.7031,23.5615-20.7686,46.4598-45.5402,46.4598h-64.5V20.2108s35.9105-.2108,52.5423-.2108M137.5,43.0423h-34.5v113h31.5c1.6026,0,9.2089-2.0761,11.1855-2.8145,7.2453-2.7069,12.9109-8.5822,15.0221-15.9779,3.803-13.3227,3.9145-63.8922-.6721-76.7431-3.229-9.0471-13.002-16.2976-22.5355-17.4645"/><polygon points="20 20.2108 45.7172 20.2108 45 178.0423 20 178.0423 20 20.2108"/><polygon points="304 20.2108 304 43.2108 242 43.2108 242 87.2108 298.2465 87.2108 298.2465 109.2108 242 109.2108 242 156.2108 304 156.2108 304 178.0423 217 178.0423 217 20.2108 304 20.2108"/></g><g class="two"><path d="M120.5423,10c31.8209,1.5635,55.0062,14.036,57.4978,48.5022,1.2635,17.4779,1.2633,45.6023,0,63.0803-1.7031,23.5615-20.7686,46.4598-45.5402,46.4598h-64.5V10.2108s35.9105-.2108,52.5423-.2108M127.5,33.0423h-34.5v113h31.5c1.6026,0,9.2089-2.0761,11.1855-2.8145,7.2453-2.7069,12.9109-8.5822,15.0221-15.9779,3.803-13.3227,3.9145-63.8922-.6721-76.7431-3.229-9.0471-13.002-16.2976-22.5355-17.4645"/><polygon points="10 10.2108 35.7172 10.2108 35 168.0423 10 168.0423 10 10.2108"/><polygon points="294 10.2108 294 33.2108 232 33.2108 232 77.2108 288.2465 77.2108 288.2465 99.2108 232 99.2108 232 146.2108 294 146.2108 294 168.0423 207 168.0423 207 10.2108 294 10.2108"/></g><path d="M110.5423,0c31.8209,1.5635,55.0062,14.036,57.4978,48.5022,1.2635,17.4779,1.2633,45.6023,0,63.0803-1.7031,23.5615-20.7686,46.4598-45.5402,46.4598H58V.2108s35.9105-.2108,52.5423-.2108M117.5,23.0423h-34.5v113h31.5c1.6026,0,9.2089-2.0761,11.1855-2.8145,7.2453-2.7069,12.9109-8.5822,15.0221-15.9779,3.803-13.3227,3.9145-63.8922-.6721-76.7431-3.229-9.0471-13.002-16.2976-22.5355-17.4645"/><polygon points="0 .2108 25.7172 .2108 25 158.0423 0 158.0423 0 .2108"/><polygon points="284 .2108 284 23.2108 222 23.2108 222 67.2108 278.2465 67.2108 278.2465 89.2108 222 89.2108 222 136.2108 284 136.2108 284 158.0423 197 158.0423 197 .2108 284 .2108"/></g></svg>